<svg width="16" height="16" viewBox="0 0 16 16" fill="none" xmlns="http://www.w3.org/2000/svg">
<path d="M5.38676 13.3335C6.37255 13.3665 7.35496 13.2015 8.27592 12.8484C9.19687 12.4952 10.0377 11.961 10.7487 11.2774C11.4597 10.5938 12.0264 9.77452 12.4154 8.86811C12.8044 7.96171 13.0077 6.98652 13.0134 6.00019C13.4652 5.44113 13.8007 4.79741 14.0001 4.10686C14.015 4.0523 14.0138 3.9946 13.9966 3.94071C13.9795 3.88682 13.9471 3.83903 13.9034 3.8031C13.8598 3.76718 13.8066 3.74464 13.7505 3.73821C13.6943 3.73178 13.6374 3.74173 13.5868 3.76686C13.3504 3.88063 13.0843 3.91738 12.826 3.87193C12.5677 3.82648 12.3301 3.70113 12.1468 3.51353C11.9127 3.25724 11.6296 3.05055 11.3143 2.90568C10.9989 2.76081 10.6576 2.68072 10.3107 2.67015C9.96382 2.65958 9.61833 2.71875 9.29472 2.84415C8.97111 2.96955 8.67596 3.15863 8.42676 3.40019C8.08555 3.73063 7.83564 4.14372 7.7013 4.59931C7.56696 5.0549 7.55276 5.53749 7.66009 6.00019C5.42676 6.13353 3.89342 5.07353 2.66676 3.62019C2.6299 3.57846 2.5817 3.54836 2.52802 3.53357C2.47435 3.51878 2.41753 3.51994 2.36451 3.53691C2.31148 3.55388 2.26454 3.58592 2.22943 3.62912C2.19431 3.67233 2.17253 3.72482 2.16676 3.78019C1.93307 5.07647 2.10164 6.41322 2.64983 7.61091C3.19803 8.80859 4.09959 9.80984 5.23342 10.4802C4.47318 11.3521 3.40556 11.8966 2.25342 12.0002C2.1917 12.0104 2.13472 12.0397 2.09046 12.0839C2.0462 12.1282 2.01687 12.1851 2.00658 12.2468C1.9963 12.3085 2.00557 12.3719 2.03309 12.4281C2.06062 12.4843 2.10502 12.5305 2.16009 12.5602C3.16244 13.0611 4.26624 13.3257 5.38676 13.3335" fill="#AAAAAA"/>
</svg>
